<svg width="253" height="100" viewBox="0 0 253 100" fill="none" xmlns="http://www.w3.org/2000/svg">
<path d="M110.989 52.6056C110.989 50.5796 111.366 48.801 112.12 47.2697C112.898 45.7385 113.946 44.5606 115.265 43.736C116.584 42.9115 118.057 42.4992 119.682 42.4992C121.072 42.4992 122.286 42.7819 123.322 43.3473C124.382 43.9127 125.195 44.6548 125.76 45.5736V42.7819H131.803V62.5H125.76V59.7084C125.171 60.6271 124.347 61.3692 123.287 61.9346C122.25 62.5 121.037 62.7827 119.647 62.7827C118.045 62.7827 116.584 62.3704 115.265 61.5459C113.946 60.6978 112.898 59.5081 112.12 57.9769C111.366 56.422 110.989 54.6316 110.989 52.6056ZM125.76 52.641C125.76 51.1333 125.336 49.9436 124.488 49.0719C123.664 48.2003 122.651 47.7645 121.449 47.7645C120.248 47.7645 119.223 48.2003 118.375 49.0719C117.55 49.92 117.138 51.0979 117.138 52.6056C117.138 54.1133 117.55 55.3148 118.375 56.21C119.223 57.0817 120.248 57.5175 121.449 57.5175C122.651 57.5175 123.664 57.0817 124.488 56.21C125.336 55.3384 125.76 54.1487 125.76 52.641ZM146.458 57.3761V62.5H143.383C141.192 62.5 139.484 61.9699 138.259 60.9098C137.034 59.8262 136.422 58.0711 136.422 55.6446V47.7998H134.019V42.7819H136.422V37.9761H142.465V42.7819H146.422V47.7998H142.465V55.7153C142.465 56.3042 142.606 56.7283 142.889 56.9874C143.171 57.2466 143.642 57.3761 144.302 57.3761H146.458ZM147.915 52.6056C147.915 50.5796 148.292 48.801 149.046 47.2697C149.823 45.7385 150.872 44.5606 152.191 43.736C153.51 42.9115 154.983 42.4992 156.608 42.4992C157.998 42.4992 159.211 42.7819 160.248 43.3473C161.308 43.9127 162.121 44.6548 162.686 45.5736V42.7819H168.729V62.5H162.686V59.7084C162.097 60.6271 161.273 61.3692 160.213 61.9346C159.176 62.5 157.963 62.7827 156.573 62.7827C154.971 62.7827 153.51 62.3704 152.191 61.5459C150.872 60.6978 149.823 59.5081 149.046 57.9769C148.292 56.422 147.915 54.6316 147.915 52.6056ZM162.686 52.641C162.686 51.1333 162.262 49.9436 161.414 49.0719C160.589 48.2003 159.576 47.7645 158.375 47.7645C157.174 47.7645 156.149 48.2003 155.301 49.0719C154.476 49.92 154.064 51.0979 154.064 52.6056C154.064 54.1133 154.476 55.3148 155.301 56.21C156.149 57.0817 157.174 57.5175 158.375 57.5175C159.576 57.5175 160.589 57.0817 161.414 56.21C162.262 55.3384 162.686 54.1487 162.686 52.641ZM193.878 37.6934V62.5H187.836V52.2876H178.436V62.5H172.394V37.6934H178.436V47.4111H187.836V37.6934H193.878ZM217.005 42.7819V62.5H210.962V59.8144C210.349 60.686 209.513 61.3928 208.453 61.9346C207.417 62.4529 206.262 62.712 204.99 62.712C203.482 62.712 202.151 62.3822 200.997 61.7226C199.843 61.0394 198.947 60.0617 198.311 58.7896C197.675 57.5175 197.357 56.0215 197.357 54.3018V42.7819H203.365V53.4891C203.365 54.8083 203.706 55.8331 204.389 56.5634C205.072 57.2937 205.991 57.6588 207.146 57.6588C208.324 57.6588 209.254 57.2937 209.937 56.5634C210.62 55.8331 210.962 54.8083 210.962 53.4891V42.7819H217.005ZM226.681 45.5736C227.246 44.6548 228.059 43.9127 229.119 43.3473C230.179 42.7819 231.393 42.4992 232.759 42.4992C234.384 42.4992 235.857 42.9115 237.176 43.736C238.495 44.5606 239.532 45.7385 240.286 47.2697C241.063 48.801 241.452 50.5796 241.452 52.6056C241.452 54.6316 241.063 56.422 240.286 57.9769C239.532 59.5081 238.495 60.6978 237.176 61.5459C235.857 62.3704 234.384 62.7827 232.759 62.7827C231.369 62.7827 230.156 62.5118 229.119 61.9699C228.083 61.4046 227.27 60.6625 226.681 59.7437V62.5H220.638V36.3506H226.681V45.5736ZM235.303 52.6056C235.303 51.0979 234.879 49.92 234.031 49.0719C233.206 48.2003 232.182 47.7645 230.957 47.7645C229.755 47.7645 228.73 48.2003 227.882 49.0719C227.058 49.9436 226.646 51.1333 226.646 52.641C226.646 54.1487 227.058 55.3384 227.882 56.21C228.73 57.0817 229.755 57.5175 230.957 57.5175C232.158 57.5175 233.183 57.0817 234.031 56.21C234.879 55.3148 235.303 54.1133 235.303 52.6056Z" fill="#0C50A3"/>
<path d="M3 60.5C3 60.5 98 60.5 100 60.5C102 60.5 106.61 55.1564 106.5 50.5C106.394 46.006 104 42.3333 100 40.75C95.351 38.9098 91 40.75 91 40.75C91 40.75 100.25 23.5 70.25 23.5C40.25 23.5 50.6667 41.6667 50.6667 41.6667C50.6667 41.6667 38.25 38 32 44.5" stroke="#0C50A3" stroke-width="5" stroke-linecap="round"/>
</svg>